# AST/ASF file generated using VICON BodyLanguage
# -----------------------------------------------
:version 1.10
:name VICON
:units
  mass 1.0
  length 0.45
  angle deg
:documentation
   .ast/.asf automatically generated from VICON data using
   VICON BodyBuilder and BodyLanguage model FoxedUp or BRILLIANT.MOD
:root
   order TX TY TZ RX RY RZ
   axis XYZ
   position 0 0 0  
   orientation 0 0 0 
:bonedata
  begin
     id 1 
     name lhipjoint
     direction 0.573633 -0.743009 0.344793 
     length 2.46257 
     axis 0 0 0  XYZ
  end
  begin
     id 2 
     name lfemur
     direction 0.34202 -0.939693 0  
     length 7.3842  
     axis 0 0 20  XYZ
    dof rx ry rz
    limits (-160.0 20.0)
           (-70.0 70.0)
           (-60.0 70.0)
  end
  begin
     id 3 
     name ltibia
     direction 0.34202 -0.939693 0   
     length 7.50407   
     axis 0 0 20   XYZ
    dof rx
    limits (-10.0 170.0)
  end
  begin
     id 4 
     name lfoot
     direction 0.110749 -0.304281 0.946123   
     length 1.95925   
     axis -90 7.62852e-016 20   XYZ
    dof rx rz
    limits (-45.0 90.0)
           (-70.0 20.0)
  end
  begin
     id 5 
     name ltoes
     direction 1.53554e-011 -4.21843e-011 1   
     length 0.978318   
     axis -90 7.62852e-016 20   XYZ
    dof rx
    limits (-90.0 20.0)
  end
  begin
     id 6 
     name rhipjoint
     direction -0.488109 -0.791693 0.367385   
     length 2.31113  
     axis 0 0 0  XYZ 
  end
  begin
     id 7 
     name rfemur
     direction -0.34202 -0.939693 0   
     length 7.40965   
     axis 0 0 -20   XYZ
    dof rx ry rz
    limits (-160.0 20.0)
           (-70.0 70.0)
           (-70.0 60.0)
  end
  begin
     id 8 
     name rtibia
     direction -0.34202 -0.939693 0   
     length 7.55548   
     axis 0 0 -20   XYZ
    dof rx
    limits (-10.0 170.0)
 end
 begin
     id 9 
     name rfoot
     direction -0.127594 -0.350561 0.927808   
     length 2.07199  
     axis -90 -7.62852e-016 -20   XYZ
    dof rx rz
    limits (-45.0 90.0)
           (-20.0 70.0)
  end
  begin
     id 10 
     name rtoes
     direction -1.53542e-011 -4.21909e-011 1   
     length 1.02667   
     axis -90 -7.62852e-016 -20   XYZ
    dof rx
    limits (-90.0 20.0)
  end
  begin
     id 11 
     name lowerback
     direction -0.0103342 0.997298 -0.0727278   
     length 2.02836   
     axis 0 0 0   XYZ
    dof rx ry rz
    limits (-20.0 45.0)
           (-30.0 30.0)
           (-30.0 30.0)
  end
  begin
     id 12 
     name upperback
     direction 0.0171146 0.999786 -0.011606   
     length 2.03179   
     axis 0 0 0   XYZ
    dof rx ry rz
    limits (-20.0 45.0)
           (-30.0 30.0)
           (-30.0 30.0)
  end
  begin
     id 13 
     name thorax
     direction 0.0216927 0.999513 0.0224343   
     length 2.03882   
     axis 0 0 0   XYZ
    dof rx ry rz
    limits (-20.0 45.0)
           (-30.0 30.0)
           (-30.0 30.0)
  end
  begin
     id 14 
     name lowerneck
     direction 0.000989287 0.993907 0.110221   
     length 1.75428   
     axis 0 0 0   XYZ
    dof rx ry rz
    limits (-20.0 45.0)
           (-30.0 30.0)
           (-30.0 30.0)
  end
  begin
     id 15 
     name upperneck
     direction -0.0172474 0.994813 -0.100253   
     length 1.77058   
     axis 0 0 0   XYZ
    dof rx ry rz
    limits (-20.0 45.0)
           (-30.0 30.0)
           (-30.0 30.0)
  end
  begin
     id 16
     name head
     direction -0.00486455 0.99894 -0.0457663  
     length 1.77427  
     axis 0 0 0   XYZ
    dof rx ry rz
    limits (-20.0 45.0)
           (-30.0 30.0)
           (-30.0 30.0)
  end
  begin
     id 17 
     name lclavicle
     direction 0.927314 0.333734 -0.169441  
     length 3.97584  
     axis 0 0 0   XYZ
    dof ry rz
    limits (-20.0 10.0)
           (0.0 20.0)
  end
  begin
     id 18 
     name lhumerus
     direction 1 -4.48965e-011 -3.25313e-028   
     length 4.76468   
     axis 180 -30 -90   XYZ
    dof rx ry rz
    limits (-60.0 90.0)
           (-90.0 90.0)
           (-90.0 90.0)
  end
  begin
     id 19
     name lradius
     direction 1 -4.48969e-011 -2.8465e-028   
     length 3.52712   
     axis -180 -30 -90   XYZ
    dof rx
    limits (-10.0 170.0)
  end
  begin
     id 20
     name lwrist
     direction 1 -4.4896e-011 -7.78665e-028   
     length 1.76356   
     axis 1.91374e-015 90 90   XYZ
    dof ry
    limits (-180.0 0.0)
 end
  begin
     id 21 
     name lhand
     direction 1 -4.48959e-011 -1.55733e-027   
     length 0.859564   
     axis 9.9371e-016 90 90   XYZ
    dof rx rz
    limits (-90.0 90.0)
           (-45.0 45.0)
  end
  begin
     id 22 
     name lfingers
     direction 1 -4.48965e-011 -3.11466e-027   
     length 0.693002   
     axis 1.98742e-015 90 90   XYZ
    dof rx
    limits (0.0 90.0)
  end
  begin
     id 23
     name lthumb
     direction 0.707107 -6.34948e-011 0.707107   
     length 0.995017   
     axis -90 45 2.85299e-015   XYZ
    dof rx rz
    limits (-45.0 45.0)
           (-45.0 45.0)
  end
  begin
     id 24 
     name rclavicle
     direction -0.899388 0.348209 -0.264294   
     length 3.68366  
     axis 0 0 0   XYZ 
    dof ry rz
    limits (-10.0 20.0)
           (-20.0 0.0)
  end
  begin
     id 25 
     name rhumerus
     direction -1 -4.48965e-011 -3.01536e-027  
     length 4.90577   
     axis 180 30 90   XYZ
    dof rx ry rz
    limits (-90.0 60.0)
           (-90.0 90.0)
           (-90.0 90.0)
  end
  begin
     id 26 
     name rradius
     direction -1 -4.48966e-011 3.93291e-027   
     length 3.42692   
     axis -180 30 90   XYZ
    dof rx
    limits (-10.0 170.0)
  end
  begin
     id 27 
     name rwrist
     direction -1 -4.48969e-011 -7.78665e-028   
     length 1.71346   
     axis 1.91374e-015 -90 -90   XYZ
    dof ry
    limits (-180.0 0.0)
  end
  begin
     id 28
     name rhand
     direction -1 -4.48967e-011 -1.55733e-027   
     length 0.740957   
     axis 9.9371e-016 -90 -90   XYZ
    dof rx rz
    limits (-90.0 90.0)
           (-45.0 45.0)
  end
  begin
     id 29
     name rfingers
     direction -1 -4.48949e-011 -3.11466e-027   
     length 0.597378   
     axis 1.98742e-015 -90 -90   XYZ
    dof rx
    limits (0.0 90.0)
  end
  begin
     id 30
     name rthumb
     direction -0.707107 -6.34931e-011 0.707107   
     length 0.857719   
     axis -90 -45 -2.85299e-015   XYZ
    dof rx rz
    limits (-45.0 45.0)
           (-45.0 45.0)
  end
:hierarchy
  begin
    root lhipjoint rhipjoint lowerback
    lhipjoint lfemur
    lfemur ltibia
    ltibia lfoot
    lfoot ltoes
    rhipjoint rfemur
    rfemur rtibia
    rtibia rfoot
    rfoot rtoes
    lowerback upperback
    upperback thorax
    thorax lowerneck lclavicle rclavicle
    lowerneck upperneck
    upperneck head
    lclavicle lhumerus
    lhumerus lradius
    lradius lwrist
    lwrist lhand lthumb
    lhand lfingers
    rclavicle rhumerus
    rhumerus rradius
    rradius rwrist
    rwrist rhand rthumb
    rhand rfingers
  end

#!OML:ASF E:\I on waltz\AllaLogoMonkeySwing\Project 1\Capture day 1\Session 1\Subject1.ASF
:FULLY-SPECIFIED
:DEGREES
113
root 1.29606 17.8647 4.39854 6.81043 -1.44697 2.5017
lowerback 6.08315 -0.173033 -4.48103
upperback 0.200929 -0.548137 -0.176925
thorax -3.16592 -0.207516 2.38117
lowerneck -10.48 1.51579 0.426642
upperneck 32.4519 2.25789 -0.511228
head 12.4736 0.982972 0.0335294
rclavicle -5.20082e-015 1.77462e-014
rhumerus -23.8545 -17.4941 -83.7904
rradius 21.3289
rwrist 6.2917
rhand -5.6374 -36.5715
rfingers 7.12502
rthumb 20.1809 -65.5432
lclavicle -5.20082e-015 1.77462e-014
lhumerus -33.6643 17.4588 83.1393
lradius 36.7318
lwrist -2.03102
lhand -6.54818 -12.5808
lfingers 7.12502
lthumb 19.3053 16.4809
rfemur -10.0309 -1.90591 10.4934
rtibia 17.4926
rfoot -11.7021 -13.4424
rtoes 15.2891
lfemur -8.30036 1.33489 -20.1021
ltibia 12.6888
lfoot -13.0014 0.792119
ltoes -28.2113
114
root 1.29784 17.8708 4.32283 7 -1.55427 2.50889
lowerback 6.70803 0.0249502 -4.27673
upperback 0.521914 -0.296026 -0.245998
thorax -3.20352 -0.0898085 2.17575
lowerneck -10.384 1.38025 0.0629941
upperneck 33.5202 2.03298 -0.111628
head 12.8905 0.884256 0.224554
rclavicle -3.85301e-015 -9.8212e-015
rhumerus -23.207 -17.2358 -83.9493
rradius 21.7975
rwrist 5.89607
rhand -5.55551 -36.5681
rfingers 7.12502
rthumb 20.2596 -65.5315
lclavicle -3.85301e-015 -9.8212e-015
lhumerus -32.9612 16.5048 83.6938
lradius 37.0614
lwrist -1.73615
lhand -6.60382 -12.612
lfingers 7.12502
lthumb 19.2518 16.4551
rfemur -10.6226 -1.9556 10.4814
rtibia 17.5742
rfoot -11.4171 -13.3456
rtoes 15.3714
lfemur -8.90797 1.40767 -20.1195
ltibia 12.9051
lfoot -12.7993 0.764305
ltoes -28.1236
115
root 1.29922 17.8756 4.24002 7.18568 -1.71641 2.52539
lowerback 7.44335 0.225668 -4.13155
upperback 0.908936 -0.0459702 -0.283479
thorax -3.23107 0.0269889 2.03317
lowerneck -10.2975 1.30587 -0.0395331
upperneck 34.4868 1.94713 -0.0657234
head 13.287 0.834754 0.253629
rclavicle -1.73937e-016 7.95139e-016
rhumerus -22.5108 -16.6772 -84.1816
rradius 22.498
rwrist 5.13122
rhand -5.68638 -36.4078
rfingers 7.12502
rthumb 20.1338 -65.3845
lclavicle -1.73937e-016 7.95139e-016
lhumerus -32.1839 15.5845 84.2918
lradius 37.4789
lwrist -1.36796
lhand -6.78566 -12.6295
lfingers 7.12502
lthumb 19.077 16.4549
rfemur -11.2651 -1.97985 10.4678
rtibia 17.6964
rfoot -11.0881 -13.2281
rtoes 15.3449
lfemur -9.52687 1.55499 -20.1492
ltibia 13.1222
lfoot -12.6062 0.726518
ltoes -28.1348
116
root 1.3024 17.8797 4.14908 7.42251 -1.8784 2.48473
lowerback 8.20301 0.179773 -4.14903
upperback 1.30214 -0.135943 -0.281667
thorax -3.24107 -0.023064 2.05578
lowerneck -9.95363 1.44827 0.185173
upperneck 35.232 2.19251 -0.326074
head 13.5481 0.931319 0.145657
rclavicle -5.78494e-015 3.35449e-015
rhumerus -21.7392 -15.3535 -84.8296
rradius 23.309
rwrist 4.19935
rhand -5.8223 -36.3663
rfingers 7.12502
rthumb 20.0032 -65.3567
lclavicle -5.78494e-015 3.35449e-015
lhumerus -31.698 15.1087 84.4625
lradius 38.2478
lwrist -0.782272
lhand -6.97039 -12.6369
lfingers 7.12502
lthumb 18.8993 16.465
rfemur -12.047 -2.09769 10.5322
rtibia 17.9823
rfoot -10.7669 -13.048
rtoes 15.072
lfemur -10.2655 1.67451 -20.1179
ltibia 13.4079
lfoot -12.3804 0.712752
ltoes -28.021
117
root 1.30536 17.8842 4.05187 7.76444 -1.97018 2.51793
lowerback 8.94244 0.0271173 -4.33286
upperback 1.72522 -0.37791 -0.184981
thorax -3.19493 -0.148201 2.28915
lowerneck -9.54664 1.69168 0.192813
upperneck 35.745 2.65146 -0.627202
head 13.6964 1.08746 0.0862688
rclavicle -2.45375e-015 6.22444e-015
rhumerus -20.8559 -13.7279 -85.3921
rradius 24.2175
rwrist 3.22753
rhand -5.9103 -36.472
rfingers 7.12502
rthumb 19.9186 -65.4712
lclavicle -2.45375e-015 6.22444e-015
lhumerus -31.2806 14.9595 84.6591
lradius 39.234
lwrist -0.213564
lhand -7.02274 -12.6677
lfingers 7.12502
lthumb 18.849 16.439
rfemur -12.9561 -2.25519 10.5092
rtibia 18.2975
rfoot -10.5224 -12.9294
rtoes 14.9736
lfemur -11.2442 1.6919 -20.1797
ltibia 13.8554
lfoot -12.1611 0.724106
ltoes -27.8391
